<?xml version="1.0" encoding="UTF-8"?>
<svg xmlns="http://www.w3.org/2000/svg" id="Layer_1" data-name="Layer 1" viewBox="0 0 24 24">
  <path d="m16,.5c0-.276.224-.5.5-.5h7c.276,0,.5.224.5.5s-.224.5-.5.5h-7c-.276,0-.5-.224-.5-.5Zm7.5,19.5h-7c-.276,0-.5.224-.5.5s.224.5.5.5h7c.276,0,.5-.224.5-.5s-.224-.5-.5-.5Zm0-9h-7c-.276,0-.5.224-.5.5s.224.5.5.5h7c.276,0,.5-.224.5-.5s-.224-.5-.5-.5Zm-.5-7h-6c-.553,0-1,.448-1,1s.447,1,1,1h6c.553,0,1-.448,1-1s-.447-1-1-1Zm0,3h-6c-.553,0-1,.448-1,1s.447,1,1,1h6c.553,0,1-.448,1-1s-.447-1-1-1Zm0,9h-6c-.553,0-1,.448-1,1s.447,1,1,1h6c.553,0,1-.448,1-1s-.447-1-1-1Zm.5-2h-7c-.276,0-.5.224-.5.5s.224.5.5.5h7c.276,0,.5-.224.5-.5s-.224-.5-.5-.5Zm0,9h-7c-.276,0-.5.224-.5.5s.224.5.5.5h7c.276,0,.5-.224.5-.5s-.224-.5-.5-.5ZM14,6v5c0,1.103-.897,2-2,2h-3.141l-.672,2h.313c.276,0,.5.224.5.5s-.224.5-.5.5h-.649l-1.973,5.873c-.396,1.275-1.584,2.099-2.863,2.099-.294,0-.593-.043-.889-.135-1.579-.491-2.465-2.176-1.975-3.755l2.512-7.474c-1.568-.704-2.663-2.28-2.663-4.108,0-2.481,2.019-4.5,4.5-4.5h7.5c1.103,0,2,.897,2,2Zm-6.195,7h-3.305c-.303,0-.599-.03-.885-.088l-2.513,7.477c-.323,1.042.268,2.165,1.32,2.493,1.061.328,2.176-.264,2.504-1.316l2.878-8.565Zm5.195-7c0-.551-.448-1-1-1h-7.5c-1.93,0-3.5,1.57-3.5,3.5s1.57,3.5,3.5,3.5h7.5c.552,0,1-.449,1-1v-5Z"/>
</svg>
